<svg width="349.9625732421875px" height="122px" xmlns="http://www.w3.org/2000/svg" viewBox="75.01871337890626 14 349.9625732421875 122" style="background: none;" preserveAspectRatio="xMidYMid"><defs><filter id="editing-vintage" x="-100%" y="-100%" width="300%" height="300%"><feConvolveMatrix in="SourceGraphic" result="extrude" order="1,1" divisor="1" kernelMatrix="1"> </feConvolveMatrix><feFlood flood-color="#900" result="flood-extrude"></feFlood><feComposite operator="in" in="flood-extrude" in2="extrude" result="extrude-color"></feComposite><feOffset dx="1" dy="1" in="extrude-color" result="extrude-offset"></feOffset><feColorMatrix in="SourceGraphic" result="stroke" type="matrix" values="0 0 0 0 0 0 0 0 0 0 0 0 0 0 0 0 1 0 0 0 "></feColorMatrix><feColorMatrix in="SourceGraphic" result="fill" type="matrix" values="0 0 0 0 0 0 0 0 0 0 0 0 0 0 0 1 0 0 1 0 "></feColorMatrix><feConvolveMatrix in="stroke" result="inner-shadow" order="5,5" divisor="1" kernelMatrix="1 0 0 0 0 0 1 0 0 0 0 0 1 0 0 0 0 0 1 0 0 0 0 0 1 "></feConvolveMatrix><feOffset dx="1" dy="1" in="inner-shadow" result="offset"></feOffset><feComposite operator="in" in="offset" in2="SourceAlpha" result="comp"></feComposite><feFlood flood-color="#000000" result="flood3"></feFlood><feComposite operator="in" in="flood3" in2="comp" result="comp2"></feComposite><feColorMatrix in="comp2" result="comp3" type="matrix" values="1 0 0 0 0 0 1 0 0 0 0 0 1 0 0 0 0 0 0.5 0 "></feColorMatrix><feFlood flood-color="#f00" result="flood1"></feFlood><feComposite operator="in" in="flood1" in2="fill" result="fill2"></feComposite><feFlood flood-color="#fff" result="flood2"></feFlood><feComposite operator="in" in="flood2" in2="stroke" result="stroke2"></feComposite><feMerge result="obj"><feMergeNode in="extrude-offset"></feMergeNode><feMergeNode in="fill2"></feMergeNode><feMergeNode in="comp3"></feMergeNode></feMerge><feConvolveMatrix in="SourceAlpha" result="shadow" order="1,1" divisor="1" kernelMatrix="1"></feConvolveMatrix><feOffset dx="3" dy="3" in="shadow" result="shadow-offset"></feOffset><feFlood flood-color="#444444" result="flood-shadow"></feFlood><feComposite operator="in" in="flood-shadow" in2="shadow-offset" result="shadow-color"></feComposite><feMerge><feMergeNode in="shadow-color"></feMergeNode><feMergeNode in="obj"></feMergeNode></feMerge></filter></defs><g transform="translate(-1,-1)"><g filter="url(#editing-vintage)"><g transform="translate(129.00999385118484, 99)"><path d="M7.68 0L0.64 0L8.32-42.24L22.08-42.24L32.06-13.18L37.38-42.24L44.48-42.18L36.67 0L22.02 0L12.80-27.97L7.68 0ZM78.40-22.46L78.40-22.46L78.40-22.46Q79.30-24.83 79.30-26.88L79.30-26.88L79.30-26.88Q79.30-30.66 76.22-30.66L76.22-30.66L76.22-30.66Q74.62-30.66 73.31-29.22L73.31-29.22L73.31-29.22Q72-27.78 72-25.98L72-25.98L72-25.98Q72-24.70 73.02-23.68L73.02-23.68L73.02-23.68Q74.50-22.27 78.27-19.97L78.27-19.97L78.27-19.97Q82.05-17.66 83.49-15.78L83.49-15.78L83.49-15.78Q84.93-13.89 84.93-11.30L84.93-11.30L84.93-11.30Q84.93-8.70 83.68-6.34L83.68-6.34L83.68-6.34Q82.43-3.97 80.19-2.30L80.19-2.30L80.19-2.30Q75.39 1.28 67.71 1.28L67.71 1.28L67.71 1.28Q63.55 1.28 60.35-0.90L60.35-0.90L60.35-0.90Q57.15-3.01 57.15-5.50L57.15-5.50L57.15-5.50Q57.15-8 58.98-9.47L58.98-9.47L58.98-9.47Q60.80-10.94 63.49-10.94L63.49-10.94L63.49-10.94Q66.18-10.94 67.84-9.92L67.84-9.92L67.84-9.92Q67.01-7.81 67.01-6.40L67.01-6.40L67.01-6.40Q67.01-2.18 70.59-2.18L70.59-2.18L70.59-2.18Q72.13-2.18 73.15-3.14L73.15-3.14L73.15-3.14Q74.18-4.10 74.18-5.76L74.18-5.76L74.18-5.76Q74.18-9.02 68.67-12.48L68.67-12.48L68.67-12.48Q64.19-15.42 63.17-16.58L63.17-16.58L63.17-16.58Q61.44-18.62 61.44-21.18L61.44-21.18L61.44-21.18Q61.44-23.74 62.66-26.18L62.66-26.18L62.66-26.18Q63.87-28.61 66.11-30.34L66.11-30.34L66.11-30.34Q70.78-33.92 78.91-33.92L78.91-33.92L78.91-33.92Q83.07-33.92 85.54-32.26L85.54-32.26L85.54-32.26Q88-30.59 88-27.78L88-27.78L88-27.78Q88-24.96 86.30-23.36L86.30-23.36L86.30-23.36Q84.61-21.76 81.54-21.76L81.54-21.76L81.54-21.76Q79.42-21.76 78.40-22.46ZM116.29-10.82L116.29-10.82L116.29-10.82Q117.89-9.73 117.89-7.33L117.89-7.33L117.89-7.33Q117.89-4.93 116.67-3.39L116.67-3.39L116.67-3.39Q115.46-1.86 113.47-0.83L113.47-0.83L113.47-0.83Q109.38 1.28 104.96 1.28L104.96 1.28L104.96 1.28Q100.54 1.28 97.95 0.32L97.95 0.32L97.95 0.32Q95.36-0.64 93.63-2.43L93.63-2.43L93.63-2.43Q90.24-5.82 90.24-12.03L90.24-12.03L90.24-12.03Q90.24-21.70 95.49-27.58L95.49-27.58L95.49-27.58Q101.12-33.92 110.91-33.92L110.91-33.92L110.91-33.92Q116.99-33.92 120-31.36L120-31.36L120-31.36Q122.24-29.44 122.24-26.30L122.24-26.30L122.24-26.30Q122.24-15.04 102.78-15.04L102.78-15.04L102.78-15.04Q102.53-13.38 102.53-11.97L102.53-11.97L102.53-11.97Q102.53-9.02 103.84-7.90L103.84-7.90L103.84-7.90Q105.15-6.78 107.58-6.78L107.58-6.78L107.58-6.78Q110.02-6.78 112.61-7.90L112.61-7.90L112.61-7.90Q115.20-9.02 116.29-10.82ZM103.23-17.79L103.23-17.79L103.23-17.79Q107.78-17.79 110.40-20.61L110.40-20.61L110.40-20.61Q113.02-23.30 113.02-27.58L113.02-27.58L113.02-27.58Q113.02-29.06 112.48-29.86L112.48-29.86L112.48-29.86Q111.94-30.66 110.85-30.66L110.85-30.66L110.85-30.66Q109.76-30.66 108.83-30.24L108.83-30.24L108.83-30.24Q107.90-29.82 106.94-28.42L106.94-28.42L106.94-28.42Q104.58-25.22 103.23-17.79ZM144.45-17.98L144.45-17.98L144.45-17.98Q146.75-22.08 146.75-26.24L146.75-26.24L146.75-26.24Q146.75-28.99 144.77-28.99L144.77-28.99L144.77-28.99Q143.23-28.99 141.63-26.37L141.63-26.37L141.63-26.37Q139.97-23.74 139.46-20.35L139.46-20.35L136.13 0L122.88 1.28L129.41-32.64L139.97-33.92L138.82-27.46L138.82-27.46Q141.95-33.92 148.99-33.92L148.99-33.92L148.99-33.92Q152.70-33.92 154.72-32L154.72-32L154.72-32Q156.74-30.08 156.74-26.14L156.74-26.14L156.74-26.14Q156.74-22.21 154.14-19.71L154.14-19.71L154.14-19.71Q151.55-17.22 147.14-17.22L147.14-17.22L147.14-17.22Q145.22-17.22 144.45-17.98ZM173.12-3.52L173.12-3.52L173.12-3.52Q171.14 1.28 164.80 1.28L164.80 1.28L164.80 1.28Q161.54 1.28 159.49-0.96L159.49-0.96L159.49-0.96Q157.76-2.94 157.76-4.93L157.76-4.93L157.76-4.93Q157.76-10.11 160.13-20.22L160.13-20.22L162.50-32.64L175.49-33.92L171.58-13.70L171.58-13.70Q170.50-8.96 170.50-7.30L170.50-7.30L170.50-7.30Q170.50-3.65 173.12-3.52ZM163.65-41.54L163.65-41.54L163.65-41.54Q163.65-44.03 165.73-45.38L165.73-45.38L165.73-45.38Q167.81-46.72 170.82-46.72L170.82-46.72L170.82-46.72Q173.82-46.72 175.65-45.38L175.65-45.38L175.65-45.38Q177.47-44.03 177.47-41.54L177.47-41.54L177.47-41.54Q177.47-39.04 175.46-37.76L175.46-37.76L175.46-37.76Q173.44-36.48 170.43-36.48L170.43-36.48L170.43-36.48Q167.42-36.48 165.54-37.76L165.54-37.76L165.54-37.76Q163.65-39.04 163.65-41.54ZM204.48-10.82L204.48-10.82L204.48-10.82Q206.08-9.73 206.08-7.33L206.08-7.33L206.08-7.33Q206.08-4.93 204.86-3.39L204.86-3.39L204.86-3.39Q203.65-1.86 201.66-0.83L201.66-0.83L201.66-0.83Q197.57 1.28 193.15 1.28L193.15 1.28L193.15 1.28Q188.74 1.28 186.14 0.32L186.14 0.32L186.14 0.32Q183.55-0.64 181.82-2.43L181.82-2.43L181.82-2.43Q178.43-5.82 178.43-12.03L178.43-12.03L178.43-12.03Q178.43-21.70 183.68-27.58L183.68-27.58L183.68-27.58Q189.31-33.92 199.10-33.92L199.10-33.92L199.10-33.92Q205.18-33.92 208.19-31.36L208.19-31.36L208.19-31.36Q210.43-29.44 210.43-26.30L210.43-26.30L210.43-26.30Q210.43-15.04 190.98-15.04L190.98-15.04L190.98-15.04Q190.72-13.38 190.72-11.97L190.72-11.97L190.72-11.97Q190.72-9.02 192.03-7.90L192.03-7.90L192.03-7.90Q193.34-6.78 195.78-6.78L195.78-6.78L195.78-6.78Q198.21-6.78 200.80-7.90L200.80-7.90L200.80-7.90Q203.39-9.02 204.48-10.82ZM191.42-17.79L191.42-17.79L191.42-17.79Q195.97-17.79 198.59-20.61L198.59-20.61L198.59-20.61Q201.22-23.30 201.22-27.58L201.22-27.58L201.22-27.58Q201.22-29.06 200.67-29.86L200.67-29.86L200.67-29.86Q200.13-30.66 199.04-30.66L199.04-30.66L199.04-30.66Q197.95-30.66 197.02-30.24L197.02-30.24L197.02-30.24Q196.10-29.82 195.14-28.42L195.14-28.42L195.14-28.42Q192.77-25.22 191.42-17.79ZM231.74-22.46L231.74-22.46L231.74-22.46Q232.64-24.83 232.64-26.88L232.64-26.88L232.64-26.88Q232.64-30.66 229.57-30.66L229.57-30.66L229.57-30.66Q227.97-30.66 226.66-29.22L226.66-29.22L226.66-29.22Q225.34-27.78 225.34-25.98L225.34-25.98L225.34-25.98Q225.34-24.70 226.37-23.68L226.37-23.68L226.37-23.68Q227.84-22.27 231.62-19.97L231.62-19.97L231.62-19.97Q235.39-17.66 236.83-15.78L236.83-15.78L236.83-15.78Q238.27-13.89 238.27-11.30L238.27-11.30L238.27-11.30Q238.27-8.70 237.02-6.34L237.02-6.34L237.02-6.34Q235.78-3.97 233.54-2.30L233.54-2.30L233.54-2.30Q228.74 1.28 221.06 1.28L221.06 1.28L221.06 1.28Q216.90 1.28 213.70-0.90L213.70-0.90L213.70-0.90Q210.50-3.01 210.50-5.50L210.50-5.50L210.50-5.50Q210.50-8 212.32-9.47L212.32-9.47L212.32-9.47Q214.14-10.94 216.83-10.94L216.83-10.94L216.83-10.94Q219.52-10.94 221.18-9.92L221.18-9.92L221.18-9.92Q220.35-7.81 220.35-6.40L220.35-6.40L220.35-6.40Q220.35-2.18 223.94-2.18L223.94-2.18L223.94-2.18Q225.47-2.18 226.50-3.14L226.50-3.14L226.50-3.14Q227.52-4.10 227.52-5.76L227.52-5.76L227.52-5.76Q227.52-9.02 222.02-12.48L222.02-12.48L222.02-12.48Q217.54-15.42 216.51-16.58L216.51-16.58L216.51-16.58Q214.78-18.62 214.78-21.18L214.78-21.18L214.78-21.18Q214.78-23.74 216-26.18L216-26.18L216-26.18Q217.22-28.61 219.46-30.34L219.46-30.34L219.46-30.34Q224.13-33.92 232.26-33.92L232.26-33.92L232.26-33.92Q236.42-33.92 238.88-32.26L238.88-32.26L238.88-32.26Q241.34-30.59 241.34-27.78L241.34-27.78L241.34-27.78Q241.34-24.96 239.65-23.36L239.65-23.36L239.65-23.36Q237.95-21.76 234.88-21.76L234.88-21.76L234.88-21.76Q232.77-21.76 231.74-22.46Z" fill="#f00" stroke="#0f0" stroke-width="1.8"></path></g></g><g><g transform="translate(129.01001673936844, 99)"><path d="M7.68 0L0.64 0L8.32-42.24L22.08-42.24L32.06-13.18L37.38-42.24L44.48-42.18L36.67 0L22.02 0L12.80-27.97L7.68 0ZM78.40-22.46L78.40-22.46L78.40-22.46Q79.30-24.83 79.30-26.88L79.30-26.88L79.30-26.88Q79.30-30.66 76.22-30.66L76.22-30.66L76.22-30.66Q74.62-30.66 73.31-29.22L73.31-29.22L73.31-29.22Q72-27.78 72-25.98L72-25.98L72-25.98Q72-24.70 73.02-23.68L73.02-23.68L73.02-23.68Q74.50-22.27 78.27-19.97L78.27-19.97L78.27-19.97Q82.05-17.66 83.49-15.78L83.49-15.78L83.49-15.78Q84.93-13.89 84.93-11.30L84.93-11.30L84.93-11.30Q84.93-8.70 83.68-6.34L83.68-6.34L83.68-6.34Q82.43-3.97 80.19-2.30L80.19-2.30L80.19-2.30Q75.39 1.28 67.71 1.28L67.71 1.28L67.71 1.28Q63.55 1.28 60.35-0.90L60.35-0.90L60.35-0.90Q57.15-3.01 57.15-5.50L57.15-5.50L57.15-5.50Q57.15-8 58.98-9.47L58.98-9.47L58.98-9.47Q60.80-10.94 63.49-10.94L63.49-10.94L63.49-10.94Q66.18-10.94 67.84-9.92L67.84-9.92L67.84-9.92Q67.01-7.81 67.01-6.40L67.01-6.40L67.01-6.40Q67.01-2.18 70.59-2.18L70.59-2.18L70.59-2.18Q72.13-2.18 73.15-3.14L73.15-3.14L73.15-3.14Q74.18-4.10 74.18-5.76L74.18-5.76L74.18-5.76Q74.18-9.02 68.67-12.48L68.67-12.48L68.67-12.48Q64.19-15.42 63.17-16.58L63.17-16.58L63.17-16.58Q61.44-18.62 61.44-21.18L61.44-21.18L61.44-21.18Q61.44-23.74 62.66-26.18L62.66-26.18L62.66-26.18Q63.87-28.61 66.11-30.34L66.11-30.34L66.11-30.34Q70.78-33.92 78.91-33.92L78.91-33.92L78.91-33.92Q83.07-33.92 85.54-32.26L85.54-32.26L85.54-32.26Q88-30.59 88-27.78L88-27.78L88-27.78Q88-24.96 86.30-23.36L86.30-23.36L86.30-23.36Q84.61-21.76 81.54-21.76L81.54-21.76L81.54-21.76Q79.42-21.76 78.40-22.46ZM116.29-10.82L116.29-10.82L116.29-10.82Q117.89-9.73 117.89-7.33L117.89-7.33L117.89-7.33Q117.89-4.93 116.67-3.39L116.67-3.39L116.67-3.39Q115.46-1.86 113.47-0.83L113.47-0.83L113.47-0.83Q109.38 1.28 104.96 1.28L104.96 1.28L104.96 1.28Q100.54 1.28 97.95 0.32L97.95 0.32L97.95 0.32Q95.36-0.64 93.63-2.43L93.63-2.43L93.63-2.43Q90.24-5.82 90.24-12.03L90.24-12.03L90.24-12.03Q90.24-21.70 95.49-27.58L95.49-27.58L95.49-27.58Q101.12-33.92 110.91-33.92L110.91-33.92L110.91-33.92Q116.99-33.92 120-31.36L120-31.36L120-31.36Q122.24-29.44 122.24-26.30L122.24-26.30L122.24-26.30Q122.24-15.04 102.78-15.04L102.78-15.04L102.78-15.04Q102.53-13.38 102.53-11.97L102.53-11.97L102.53-11.97Q102.53-9.02 103.84-7.90L103.84-7.90L103.84-7.90Q105.15-6.78 107.58-6.78L107.58-6.78L107.58-6.78Q110.02-6.78 112.61-7.90L112.61-7.90L112.61-7.90Q115.20-9.02 116.29-10.82ZM103.23-17.79L103.23-17.79L103.23-17.79Q107.78-17.79 110.40-20.61L110.40-20.61L110.40-20.61Q113.02-23.30 113.02-27.58L113.02-27.58L113.02-27.58Q113.02-29.06 112.48-29.86L112.48-29.86L112.48-29.86Q111.94-30.66 110.85-30.66L110.85-30.66L110.85-30.66Q109.76-30.66 108.83-30.24L108.83-30.24L108.83-30.24Q107.90-29.82 106.94-28.42L106.94-28.42L106.94-28.42Q104.58-25.22 103.23-17.79ZM144.45-17.98L144.45-17.98L144.45-17.98Q146.75-22.08 146.75-26.24L146.75-26.24L146.75-26.24Q146.75-28.99 144.77-28.99L144.77-28.99L144.77-28.99Q143.23-28.99 141.63-26.37L141.63-26.37L141.63-26.37Q139.97-23.74 139.46-20.35L139.46-20.35L136.13 0L122.88 1.28L129.41-32.64L139.97-33.92L138.82-27.46L138.82-27.46Q141.95-33.92 148.99-33.92L148.99-33.92L148.99-33.92Q152.70-33.92 154.72-32L154.72-32L154.72-32Q156.74-30.08 156.74-26.14L156.74-26.14L156.74-26.14Q156.74-22.21 154.14-19.71L154.14-19.71L154.14-19.71Q151.55-17.22 147.14-17.22L147.14-17.22L147.14-17.22Q145.22-17.22 144.45-17.98ZM173.12-3.52L173.12-3.52L173.12-3.52Q171.14 1.28 164.80 1.28L164.80 1.28L164.80 1.28Q161.54 1.28 159.49-0.96L159.49-0.96L159.49-0.96Q157.76-2.94 157.76-4.93L157.76-4.93L157.76-4.93Q157.76-10.11 160.13-20.22L160.13-20.22L162.50-32.64L175.49-33.92L171.58-13.70L171.58-13.70Q170.50-8.96 170.50-7.30L170.50-7.30L170.50-7.30Q170.50-3.65 173.12-3.52ZM163.65-41.54L163.65-41.54L163.65-41.54Q163.65-44.03 165.73-45.38L165.73-45.38L165.73-45.38Q167.81-46.72 170.82-46.72L170.82-46.72L170.82-46.72Q173.82-46.72 175.65-45.38L175.65-45.38L175.65-45.38Q177.47-44.03 177.47-41.54L177.47-41.54L177.47-41.54Q177.47-39.04 175.46-37.76L175.46-37.76L175.46-37.76Q173.44-36.48 170.43-36.48L170.43-36.48L170.43-36.48Q167.42-36.48 165.54-37.76L165.54-37.76L165.54-37.76Q163.65-39.04 163.65-41.54ZM204.48-10.82L204.48-10.82L204.48-10.82Q206.08-9.73 206.08-7.33L206.08-7.33L206.08-7.33Q206.08-4.93 204.86-3.39L204.86-3.39L204.86-3.39Q203.65-1.86 201.66-0.83L201.66-0.83L201.66-0.83Q197.57 1.28 193.15 1.28L193.15 1.28L193.15 1.28Q188.74 1.28 186.14 0.32L186.14 0.32L186.14 0.32Q183.55-0.64 181.82-2.43L181.82-2.43L181.82-2.43Q178.43-5.82 178.43-12.03L178.43-12.03L178.43-12.03Q178.43-21.70 183.68-27.58L183.68-27.58L183.68-27.58Q189.31-33.92 199.10-33.92L199.10-33.92L199.10-33.92Q205.18-33.92 208.19-31.36L208.19-31.36L208.19-31.36Q210.43-29.44 210.43-26.30L210.43-26.30L210.43-26.30Q210.43-15.04 190.98-15.04L190.98-15.04L190.98-15.04Q190.72-13.38 190.72-11.97L190.72-11.97L190.72-11.97Q190.72-9.02 192.03-7.90L192.03-7.90L192.03-7.90Q193.34-6.78 195.78-6.78L195.78-6.78L195.78-6.78Q198.21-6.78 200.80-7.90L200.80-7.90L200.80-7.90Q203.39-9.02 204.48-10.82ZM191.42-17.79L191.42-17.79L191.42-17.79Q195.97-17.79 198.59-20.61L198.59-20.61L198.59-20.61Q201.22-23.30 201.22-27.58L201.22-27.58L201.22-27.58Q201.22-29.06 200.67-29.86L200.67-29.86L200.67-29.86Q200.13-30.66 199.04-30.66L199.04-30.66L199.04-30.66Q197.95-30.66 197.02-30.24L197.02-30.24L197.02-30.24Q196.10-29.82 195.14-28.42L195.14-28.42L195.14-28.42Q192.77-25.22 191.42-17.79ZM231.74-22.46L231.74-22.46L231.74-22.46Q232.64-24.83 232.64-26.88L232.64-26.88L232.64-26.88Q232.64-30.66 229.57-30.66L229.57-30.66L229.57-30.66Q227.97-30.66 226.66-29.22L226.66-29.22L226.66-29.22Q225.34-27.78 225.34-25.98L225.34-25.98L225.34-25.98Q225.34-24.70 226.37-23.68L226.37-23.68L226.37-23.68Q227.84-22.27 231.62-19.97L231.62-19.97L231.62-19.97Q235.39-17.66 236.83-15.78L236.83-15.78L236.83-15.78Q238.27-13.89 238.27-11.30L238.27-11.30L238.27-11.30Q238.27-8.70 237.02-6.34L237.02-6.34L237.02-6.34Q235.78-3.97 233.54-2.30L233.54-2.30L233.54-2.30Q228.74 1.28 221.06 1.28L221.06 1.28L221.06 1.28Q216.90 1.28 213.70-0.90L213.70-0.90L213.70-0.90Q210.50-3.01 210.50-5.50L210.50-5.50L210.50-5.50Q210.50-8 212.32-9.47L212.32-9.47L212.32-9.47Q214.14-10.94 216.83-10.94L216.83-10.94L216.83-10.94Q219.52-10.94 221.18-9.92L221.18-9.92L221.18-9.92Q220.35-7.81 220.35-6.40L220.35-6.40L220.35-6.40Q220.35-2.18 223.94-2.18L223.94-2.18L223.94-2.18Q225.47-2.18 226.50-3.14L226.50-3.14L226.50-3.14Q227.52-4.10 227.52-5.76L227.52-5.76L227.52-5.76Q227.52-9.02 222.02-12.48L222.02-12.48L222.02-12.48Q217.54-15.42 216.51-16.58L216.51-16.58L216.51-16.58Q214.78-18.62 214.78-21.18L214.78-21.18L214.78-21.18Q214.78-23.74 216-26.18L216-26.18L216-26.18Q217.22-28.61 219.46-30.34L219.46-30.34L219.46-30.34Q224.13-33.92 232.26-33.92L232.26-33.92L232.26-33.92Q236.42-33.92 238.88-32.26L238.88-32.26L238.88-32.26Q241.34-30.59 241.34-27.78L241.34-27.78L241.34-27.78Q241.34-24.96 239.65-23.36L239.65-23.36L239.65-23.36Q237.95-21.76 234.88-21.76L234.88-21.76L234.88-21.76Q232.77-21.76 231.74-22.46Z" fill="none" stroke="#000000" stroke-width="2.1"></path></g></g></g><style>text {
  font-size: 64px;
  font-family: Arial Black;
  dominant-baseline: central;
  text-anchor: middle;
}</style></svg>